<mxfile host="app.diagrams.net" modified="2024-04-08T09:09:46.968Z" agent="Mozilla/5.0 (Macintosh; Intel Mac OS X 10_15_7) AppleWebKit/605.1.15 (KHTML, like Gecko) Version/17.4.1 Safari/605.1.15" version="24.2.2" etag="Uda7hb8DIGdw8vT49GEi" type="github">
  <diagram name="Страница — 1" id="4YjNS0ks298fegkTrhW6">
    <mxGraphModel>
      <root>
        <mxCell id="0" />
        <mxCell id="1" parent="0" />
      </root>
    </mxGraphModel>
  </diagram>
</mxfile>
